<?xml version="1.0" encoding="UTF-8"?>
<svg width="111.12" height="30.48" version="1.1" viewBox="0 0 29.4 8.0645" xmlns="http://www.w3.org/2000/svg">
<g transform="translate(46.572 -98.07)" fill="#b3b3b3">
<path d="m-19.077 102.58c0 0.40216-0.42332 0.80432-0.97365 0.80432-0.78316 0-0.889-0.14816-0.889-0.29633 0-0.23283 0.33867-0.16933 0.33867-0.69849 0-0.29633-0.3175-0.6985-0.8255-0.6985-0.48683 0-0.76199 0.35983-0.76199 0.84666 0 0.762 0.76199 1.3547 2.1378 1.3547 1.6298 0 2.4553-0.95249 2.4553-1.9262 0-1.8415-2.5823-1.6298-2.5823-2.6458 0-0.33866 0.27516-0.76199 0.97366-0.76199 0.50799 0 0.74083 0.14816 0.74083 0.3175 0 0.14816-0.29634 0.23283-0.29634 0.61383 0 0.38099 0.33867 0.69849 0.762 0.69849 0.55033 0 0.82549-0.33866 0.82549-0.88899 0-0.61383-0.71966-1.2277-2.0531-1.2277-1.4817 0-2.3495 0.78316-2.3495 1.7992 0 2.032 2.4976 1.6298 2.4976 2.7093zm-10.647-3.8735h0.35983c0.508 0 0.635 0.10584 0.635 0.4445 0 0.254-0.99483 2.7517-0.99483 3.5348 0 0.69849 0.5715 1.2065 1.27 1.2065 0.9525 0 1.7145-0.67733 2.2225-1.397l0.0212 0.0212c-0.0423 0.127-0.0423 0.27516-0.0423 0.44449 0 0.635 0.44449 0.93133 1.0583 0.93133 0.80433 0 1.4182-0.40216 2.4342-1.9473l-0.42334-0.29633c-0.80432 1.1642-0.97366 1.27-1.1218 1.27-0.14817 0-0.23283-0.0635-0.23283-0.1905 0-0.42333 0.93132-3.302 1.4182-4.4873h-1.8626c-0.508 1.8627-0.78316 2.7305-1.2277 3.429-0.52916 0.82549-1.143 1.2488-1.4816 1.2488-0.21167 0-0.29633-0.1905-0.29633-0.3175 0-0.40216 0.63499-1.8838 1.3758-4.5296l-2.9845 0.127zm-3.2385 0.1905c-0.23284-0.57149-0.8255-0.82549-1.4605-0.82549-1.7992 0-3.2596 1.8838-3.2596 3.7465 0 1.27 0.86783 2.0743 1.9897 2.0743 0.80432 0 1.4182-0.42333 1.8626-1.0795l0.0212 0.0212v0.1905c0 0.52917 0.40216 0.86783 0.97366 0.86783 0.84666 0 1.4816-0.59266 2.413-1.9896l-0.4445-0.29633c-0.71966 1.0795-1.016 1.3335-1.1853 1.3335-0.10584 0-0.16934-0.0635-0.16934-0.23284 0-0.35983 0.21167-0.97365 1.2488-4.4661h-1.7992zm-0.33867 0.61383c0 0.65616-0.35983 2.032-0.69849 2.6247-0.40217 0.74083-0.74083 0.95249-1.1007 0.95249-0.4445 0-0.74083-0.3175-0.74083-0.95249 0-0.71966 0.35983-1.9685 0.6985-2.54 0.38099-0.635 0.69849-0.889 1.1218-0.889 0.3175 0 0.71966 0.23284 0.71966 0.80433zm-11.557-0.80433h0.38099c0.48683 0 0.635 0.10584 0.635 0.4445 0 0.23283-1.3758 4.8683-1.651 5.9055-0.127 0.46566-0.16933 0.50799-0.93132 0.50799l-0.14817 0.5715h3.5348l0.14816-0.5715c-0.74083-0.0212-0.86782-0.10583-0.86782-0.38099 0-0.23284 0.0847-0.55033 0.55032-2.0955h0.0212c0.27517 0.55033 0.71967 0.80433 1.4393 0.80433 1.8203 0 3.3231-1.8626 3.3231-3.683 0-1.2277-0.71966-2.1378-1.9473-2.1378-0.84666 0-1.397 0.40216-1.905 1.016l-0.0212-0.0212 0.27516-0.99482-2.7093 0.127zm4.5931 1.0795c0 0.63499-0.254 1.5875-0.55033 2.2437-0.381 0.88899-0.76199 1.2276-1.2488 1.2276-0.508 0-0.80433-0.40216-0.80433-0.88899 0-0.63499 0.1905-1.2912 0.4445-2.0108 0.35983-0.91016 0.82549-1.5028 1.3758-1.5028 0.42333 0 0.78316 0.254 0.78316 0.93133z" fill="#b3b3b3" fill-rule="evenodd"/>
</g>
</svg>
