<?xml version="1.0" encoding="UTF-8"?>
<svg width="82" height="82" version="1.1" viewBox="0 0 21.695 21.695" xmlns="http://www.w3.org/2000/svg">
<defs>
<linearGradient id="i" x1="155.88" x2="173.21" y1="165" y2="135" gradientTransform="matrix(-.43889 0 0 .43889 76.883 -55.173)" gradientUnits="userSpaceOnUse">
<stop stop-color="#800000" offset="0"/>
<stop stop-color="#800000" offset=".41449"/>
<stop stop-color="#980005" offset=".51308"/>
<stop stop-color="#a30000" offset=".60161"/>
<stop stop-color="#a30000" offset="1"/>
</linearGradient>
<linearGradient id="h" x1="108.25" x2="125.57" y1="247.5" y2="217.5" gradientTransform="matrix(-.43889 0 0 .43889 55.978 -91.381)" gradientUnits="userSpaceOnUse">
<stop stop-color="#999" offset=".27"/>
<stop stop-color="#e3e3e3" offset="1"/>
</linearGradient>
<linearGradient id="g" x1="47.631" x2="30.311" y1="137.5" y2="167.5" gradientUnits="userSpaceOnUse">
<stop stop-color="#d9d9d9" offset="0"/>
<stop stop-color="#fff" offset=".05835"/>
<stop stop-color="#fff" offset=".43676"/>
<stop stop-color="#f2f2f2" offset=".52008"/>
<stop stop-color="#f2f2f2" offset=".95985"/>
<stop stop-color="#d9d9d9" offset="1"/>
</linearGradient>
<linearGradient id="f" x1="155.88" x2="138.56" y1="180" y2="210" gradientTransform="matrix(-.43889 0 0 .43889 76.883 -79.312)" gradientUnits="userSpaceOnUse">
<stop stop-color="#c82128" offset="0"/>
<stop stop-color="#c82128" offset=".94455"/>
<stop stop-color="#971c1e" offset="1"/>
</linearGradient>
<filter id="e" x="-.14853" y="-.13337" width="1.2971" height="1.2667" color-interpolation-filters="sRGB">
<feFlood flood-color="rgb(0,0,0)" flood-opacity=".50196" in="SourceGraphic" result="flood"/>
<feGaussianBlur in="SourceGraphic" result="blur" stdDeviation="0.500000"/>
<feOffset dx="0.000000" dy="0.000000" in="blur" result="offset"/>
<feComposite in="flood" in2="offset" operator="in" result="comp1"/>
<feComposite in="SourceGraphic" in2="comp1" result="comp2"/>
</filter>
</defs>
<g transform="translate(1.3229 1.3229)">
<path class="UnoptimicedTransforms" d="m9.5248 1.0583a2.0113 2.0113 0 0 0-1.0056 0.26923l-5.5908 3.2276a2.0113 2.0113 0 0 0-1.0056 1.742v6.4553a2.0113 2.0113 0 0 0 1.0056 1.742l5.5908 3.2276a2.0113 2.0113 0 0 0 1.0056 0.26923 2.0113 2.0113 0 0 0 1.0056-0.26923l5.5908-3.2276a2.0113 2.0113 0 0 0 1.0056-1.742v-6.4553a2.0113 2.0113 0 0 0-1.0056-1.742l-5.5908-3.2276a2.0113 2.0113 0 0 0-1.0056-0.26923z" fill="#fff" filter="url(#e)" stroke="#fff" stroke-width="2.1166"/>
<g transform="translate(1.0577 1.0581)">
<path d="m1.5989 4.3284-0.54105 0.2868-0.1757 0.38189-0.0077515 0.095085a2.0113 2.0113 0 0 0-0.009302 0.14676v6.4554a2.0113 2.0113 0 0 0 1.0056 1.742l0.64906 0.37465 2.0112 1.1612 2.9301 1.6919a2.0113 2.0113 0 0 0 2.0112 0l1.7896-1.0335a2.0113 2.0113 0 0 0 1.0056-1.742v-9.5601h-10.669z" fill="url(#i)" stroke-linecap="round" stroke-linejoin="round" stroke-miterlimit="12.7" stroke-opacity=".21176" stroke-width=".87778"/>
<path d="m8.4666 3.2 4.5611 2.6333v5.2667l-4.5611 2.6334-4.5611-2.6334v-5.2667z" fill="url(#h)" stroke-linecap="round" stroke-linejoin="round" stroke-miterlimit="12.7" stroke-width=".52667"/>
<path class="UnoptimicedTransforms" transform="matrix(-.43889 0 0 .43889 29.372 -60.659)" d="m47.631 138.21a4.5827 4.5827 0 0 0-2.2913 0.61392l-12.738 7.3541a4.5827 4.5827 0 0 0-2.2913 3.9688v14.708a4.5827 4.5827 0 0 0 2.2913 3.9688l12.738 7.3541a4.5827 4.5827 0 0 0 4.5827 0 1.5276 1.5276 0 0 1-0.33435 0.13849 1.5276 1.5276 0 0 1-0.11782 0.0253 1.5276 1.5276 0 0 1-0.24856 0.0325 1.5276 1.5276 0 0 1-0.12609 0 1.5276 1.5276 0 0 1-0.24856-0.0325 1.5276 1.5276 0 0 1-0.11782-0.0253 1.5276 1.5276 0 0 1-0.33435-0.13849 1.5276 1.5276 0 0 1-0.28835-0.22117 1.5276 1.5276 0 0 1-0.07855-0.0873 1.5276 1.5276 0 0 1-0.15141-0.1974 1.5276 1.5276 0 0 1-0.06615-0.11472 1.5276 1.5276 0 0 1-0.0956-0.22996 1.5276 1.5276 0 0 1-0.03617-0.11162 1.5276 1.5276 0 0 1-0.04754-0.36071v-14.708a4.5827 4.5827 0 0 1 2.2913-3.9688l6.3691-3.6773 1.4247-0.82217 0.30696-0.17725 2.5983-1.5002 2.0386-1.1772a1.5276 1.5276 0 0 1 0.0021-1e-3 1.5276 1.5276 0 0 1 0.6475-0.19947 1.5276 1.5276 0 0 1 1.635 1.3886 4.5827 4.5827 0 0 0-2.1182-3.7228 1.5276 1.5276 0 0 0-0.02377-0.016 4.5827 4.5827 0 0 0-0.14211-0.0951h-5.16e-4l-6.3686-3.6768-6.3691-3.6773a4.5827 4.5827 0 0 0-2.2913-0.61392z" fill="url(#g)" stroke-linejoin="round" stroke-miterlimit="12.7"/>
<path d="m16.068 9.3445v2.3499a2.0113 2.0113 0 0 1-1.0056 1.7418l-5.5905 3.2276a2.0113 2.0113 0 0 1-2.0111 0 0.67044 0.67044 0 0 0 0.14651 0.06078 0.67044 0.67044 0 0 0 0.05171 0.01088 0.67044 0.67044 0 0 0 0.1091 0.01431 0.67044 0.67044 0 0 0 0.05534 0 0.67044 0.67044 0 0 0 0.10909-0.01431 0.67044 0.67044 0 0 0 0.05171-0.01088 0.67044 0.67044 0 0 0 0.14674-0.06078 0.67044 0.67044 0 0 0 0.12655-0.09707 0.67044 0.67044 0 0 0 0.034497-0.03832 0.67044 0.67044 0 0 0 0.066457-0.08664 0.67044 0.67044 0 0 0 0.029011-0.05035 0.67044 0.67044 0 0 0 0.041958-0.10093 0.67044 0.67044 0 0 0 0.015888-0.04899 0.67044 0.67044 0 0 0 0.020847-0.15831v-2.3499z" fill="url(#f)"/>
<path d="m12.56 6.8913-1.4328 0.91688-0.06723 0.397 0.20141-0.11628c0.25745-0.14864 0.33587-0.11934 0.33587 0.11945 0 0.16417-0.72762 3.8529-0.87314 4.6682-0.06716 0.36712-0.08949 0.40985-0.49246 0.6425l-0.07843 0.44828 1.8695-1.0794 0.07816-0.44813c-0.39178 0.21125-0.45884 0.19038-0.45884-0.0035 0-0.16418 0.04481-0.41391 0.29105-1.6456l0.01124-0.0065c0.14552 0.30403 0.38051 0.34729 0.76109 0.12755 0.96265-0.55578 1.7575-2.3281 1.7575-3.6116 0-0.86565-0.3805-1.2877-1.0297-0.91292-0.44774 0.25851-0.73896 0.71019-1.0076 1.2981l-0.01124-0.00847zm0.51487 0.25514c0.22387-0.12925 0.41402-0.060023 0.41402 0.41757 0 0.44773-0.13434 1.197-0.29105 1.7502-0.20149 0.74316-0.4028 1.098-0.66026 1.2466-0.26865 0.1551-0.4255-0.03779-0.4255-0.38107 0-0.44773 0.1007-0.96849 0.23503-1.5535 0.19029-0.75164 0.43672-1.3118 0.72776-1.4798z" fill="#231f20" fill-rule="evenodd"/>
</g>
</g>
</svg>
